HIERARCHY
ROOT SpineBase
{
  OFFSET 0.000000 0.000000 0.000000
  CHANNELS 6 Xposition Yposition Zposition Zrotation Xrotation Yrotation
  JOINT SpineMid
  {
    OFFSET -0.000000 31.144058 0.000000
    CHANNELS 3 Zrotation Xrotation Yrotation
    JOINT SpineShoulder
    {
      OFFSET -0.101219 23.104694 -0.716193
      CHANNELS 3 Zrotation Xrotation Yrotation
      JOINT Neck
      {
        OFFSET -0.081047 7.656407 -0.576607
        CHANNELS 3 Zrotation Xrotation Yrotation
        JOINT Head
        {
          OFFSET -3.819091 13.892775 2.278674
          CHANNELS 3 Zrotation Xrotation Yrotation
          End Site
          {
            OFFSET 0 0 0
          }
        }
      }
      JOINT ShoulderLeft
      {
        OFFSET -11.193601 -4.478310 10.908656
        CHANNELS 3 Zrotation Xrotation Yrotation
        JOINT ElbowLeft
        {
          OFFSET -1.539603 -26.755691 -6.196027
          CHANNELS 3 Zrotation Xrotation Yrotation
          JOINT WristLeft
          {
            OFFSET -2.299396 -24.908337 11.347283
            CHANNELS 3 Zrotation Xrotation Yrotation
            JOINT HandLeft
            {
              OFFSET 0.067969 -6.424415 -1.046463
              CHANNELS 3 Zrotation Xrotation Yrotation
              JOINT HandTipLeft
              {
                OFFSET -0.166003 -7.121266 0.683044
                CHANNELS 3 Zrotation Xrotation Yrotation
                End Site
                {
                  OFFSET 0 0 0
                }
              }
              JOINT ThumbLeft
              {
                OFFSET 2.574996 -1.856504 -4.569955
                CHANNELS 3 Zrotation Xrotation Yrotation
                End Site
                {
                  OFFSET 0 0 0
                }
              }
            }
          }
        }
      }
      JOINT ShoulderRight
      {
        OFFSET 7.592083 -4.038824 -12.659959
        CHANNELS 3 Zrotation Xrotation Yrotation
        JOINT ElbowRight
        {
          OFFSET 4.457847 -23.928428 -5.519744
          CHANNELS 3 Zrotation Xrotation Yrotation
          JOINT WristRight
          {
            OFFSET -6.284254 -26.314543 -3.602773
            CHANNELS 3 Zrotation Xrotation Yrotation
            JOINT HandRight
            {
              OFFSET -0.991291 -8.674631 -0.588287
              CHANNELS 3 Zrotation Xrotation Yrotation
              JOINT HandTipRight
              {
                OFFSET -1.663722 -7.728117 1.018522
                CHANNELS 3 Zrotation Xrotation Yrotation
                End Site
                {
                  OFFSET 0 0 0
                }
              }
              JOINT ThumbRight
              {
                OFFSET 2.980911 -1.245798 -2.773975
                CHANNELS 3 Zrotation Xrotation Yrotation
                End Site
                {
                  OFFSET 0 0 0
                }
              }
            }
          }
        }
      }
    }
  }
  JOINT HipLeft
  {
    OFFSET -4.955777 1.022129 1.483557
    CHANNELS 3 Zrotation Xrotation Yrotation
    JOINT KneeLeft
    {
      OFFSET -2.979650 -27.503233 13.010197
      CHANNELS 3 Zrotation Xrotation Yrotation
      JOINT AnkleLeft
      {
        OFFSET 13.061447 -34.905519 2.929743
        CHANNELS 3 Zrotation Xrotation Yrotation
        JOINT FootLeft
        {
          OFFSET -8.231527 -4.274050 -9.502621
          CHANNELS 3 Zrotation Xrotation Yrotation
          End Site
          {
            OFFSET 0 0 0
          }
        }
      }
    }
  }
  JOINT HipRight
  {
    OFFSET 4.665198 1.434151 -8.119376
    CHANNELS 3 Zrotation Xrotation Yrotation
    JOINT KneeRight
    {
      OFFSET 8.955322 -35.124581 0.025009
      CHANNELS 3 Zrotation Xrotation Yrotation
      JOINT AnkleRight
      {
        OFFSET 8.065344 -32.211987 3.396775
        CHANNELS 3 Zrotation Xrotation Yrotation
        JOINT FootRight
        {
          OFFSET -3.284861 -7.819069 -2.171720
          CHANNELS 3 Zrotation Xrotation Yrotation
          End Site
          {
            OFFSET 0 0 0
          }
        }
      }
    }
  }
}
MOTION
Frames: 8
Frame Time: 0.033333
13.284615 76.278898 260.868916 -0.000000 0.000000 44.946227 -0.000000 0.000000 -44.946227 -0.000000 0.000000 0.000000 -0.000000 0.000000 0.000000 0.000000 0.000000 0.000000 -0.000000 0.000000 0.000000 -0.000000 0.000000 0.000000 -0.000000 0.000000 0.000000 -0.000000 0.000000 0.000000 0.000000 0.000000 0.000000 0.000000 0.000000 0.000000 -0.000000 0.000000 0.000000 -0.000000 0.000000 0.000000 -0.000000 0.000000 0.000000 -0.000000 0.000000 0.000000 0.000000 0.000000 0.000000 0.000000 0.000000 0.000000 -0.000000 0.000000 -44.946227 -0.000000 0.000000 0.000000 -0.000000 0.000000 0.000000 0.000000 0.000000 0.000000 -0.000000 0.000000 -44.946227 -0.000000 0.000000 0.000000 -0.000000 0.000000 0.000000 0.000000 0.000000 0.000000
13.257809 76.204814 260.896965 0.017646 -0.032050 45.218329 0.010319 0.035102 -45.218328 -0.000000 0.000000 0.000000 -0.000000 0.000000 0.000000 0.000000 0.000000 0.000000 -0.000000 0.000000 0.000000 -0.000000 0.000000 0.000000 -1.868777 -3.712683 0.205684 2.286150 2.492788 -0.281748 0.000000 0.000000 0.000000 0.000000 0.000000 0.000000 -0.000000 0.000000 0.000000 1.950442 0.591403 -0.419776 -0.211028 0.824002 0.115538 0.073505 1.807261 -0.203910 0.000000 0.000000 0.000000 0.000000 0.000000 0.000000 0.691858 -0.443454 -44.843488 -0.820692 -0.141304 -0.373423 -0.000000 0.000000 0.000000 0.000000 0.000000 0.000000 0.010319 0.035102 -45.218328 -0.000000 0.000000 0.000000 -0.000000 0.000000 0.000000 0.000000 0.000000 0.000000
13.233270 76.139196 260.919660 0.033350 -0.056473 45.464059 0.016864 0.063380 -45.464051 -0.000000 0.000000 0.000000 -0.000000 0.000000 0.000000 0.000000 0.000000 0.000000 -0.000000 0.000000 0.000000 1.264583 0.034463 0.573215 -5.058914 -6.887721 -0.265984 4.594471 4.657467 -0.714445 0.000000 0.000000 0.000000 0.000000 0.000000 0.000000 -0.000000 0.000000 0.000000 3.753735 1.094621 -0.816713 -0.683576 1.321649 0.251088 0.553790 3.556202 -0.429600 0.000000 0.000000 0.000000 0.000000 0.000000 0.000000 1.649829 -0.802559 -44.676921 -1.769970 -0.532504 -0.784822 -0.000000 0.000000 0.000000 0.000000 0.000000 0.000000 0.016864 0.063380 -45.464051 -0.000000 0.000000 0.000000 1.031114 0.043823 -0.306326 0.000000 0.000000 0.000000
13.210997 76.082044 260.937002 0.047131 -0.073315 45.683419 0.019529 0.084941 -45.683403 -0.000000 0.000000 0.000000 -0.000000 0.000000 0.000000 0.000000 0.000000 0.000000 -0.000000 0.000000 0.000000 1.644457 -0.304230 0.781732 -7.204205 -8.855343 -0.393907 6.785421 6.186663 -1.213429 0.000000 0.000000 0.000000 0.000000 0.000000 0.000000 -0.000000 0.000000 0.000000 5.343201 1.491582 -1.168813 -1.289610 1.567146 0.394864 1.364181 5.148226 -0.646759 0.000000 0.000000 0.000000 0.000000 0.000000 0.000000 2.855449 -1.073738 -44.452083 -2.835753 -1.159184 -1.235536 -0.000000 0.000000 0.000000 0.000000 0.000000 0.000000 0.019529 0.084941 -45.683403 -0.000000 0.000000 0.000000 1.416763 0.094466 -0.436541 0.000000 0.000000 0.000000
13.190991 76.033358 260.948990 0.059003 -0.082614 45.876430 0.018225 0.099872 -45.876404 -0.000000 0.000000 0.000000 -0.000000 0.000000 0.000000 0.000000 0.000000 0.000000 -0.000000 0.000000 0.000000 1.870119 -0.873407 0.945036 -8.904235 -9.517585 -0.428750 8.713665 6.854159 -1.663887 0.000000 0.000000 0.000000 0.000000 0.000000 0.000000 -0.000000 0.000000 0.000000 6.657163 1.768547 -1.454778 -1.923437 1.617034 0.534680 2.447110 6.516528 -0.832369 0.000000 0.000000 0.000000 0.000000 0.000000 0.000000 4.283918 -1.254685 -44.176516 -4.003649 -2.001395 -1.726839 -0.000000 0.000000 0.000000 0.000000 0.000000 0.000000 0.018225 0.099872 -45.876404 -0.000000 0.000000 0.000000 1.715379 0.164866 -0.551450 0.000000 0.000000 0.000000
13.173252 75.993139 260.955625 0.068981 -0.084399 46.043124 0.012874 0.108239 -46.043086 -0.000000 0.000000 0.000000 -0.000000 0.000000 0.000000 0.000000 0.000000 0.000000 -0.000000 0.000000 0.000000 1.947736 -1.672188 1.064765 -10.049457 -8.770011 -0.313673 10.259272 6.557656 -1.955843 0.000000 0.000000 0.000000 0.000000 0.000000 0.000000 0.849015 0.205796 -0.158752 6.789973 1.731261 -1.474514 -2.504253 1.510528 0.660737 3.762113 7.619036 -0.969293 0.000000 0.000000 0.000000 0.000000 0.000000 0.000000 5.904980 -1.344725 -43.859381 -6.221757 -3.035479 -2.406305 0.962110 0.041089 0.095488 0.000000 0.000000 0.000000 0.012874 0.108239 -46.043086 -0.000000 0.000000 0.000000 1.926813 0.255357 -0.650978 0.000000 0.000000 0.000000
13.139830 75.958926 260.947958 0.059975 -0.066051 46.231563 0.006211 0.089001 -46.231533 -0.000000 0.000000 0.000000 -0.000000 0.000000 0.000000 0.000000 0.000000 0.000000 -0.000000 0.000000 0.000000 1.681244 -3.427997 1.119050 -10.047679 -5.555364 0.096714 11.095805 5.046428 -1.906898 0.000000 0.000000 0.000000 0.000000 0.000000 0.000000 1.049520 0.279714 -0.192122 7.060110 1.503024 -1.456953 -2.352592 1.573518 0.652103 4.444854 8.025719 -0.937965 0.000000 0.000000 0.000000 0.000000 0.000000 0.000000 7.908205 -1.304315 -43.527383 -7.968504 -4.828580 -3.261441 1.242684 0.470713 0.274322 0.000000 0.000000 0.000000 0.006211 0.089001 -46.231533 -0.000000 0.000000 0.000000 1.905588 0.408225 -0.711869 0.000000 0.000000 0.000000
13.092538 75.934121 260.947411 0.019824 -0.060995 46.368878 0.030469 0.056436 -46.368882 -0.000000 0.000000 0.000000 -0.000000 0.000000 0.000000 0.000000 0.000000 0.000000 -0.000000 0.000000 0.000000 1.463802 -4.694517 1.140516 -10.380015 -2.277416 0.562137 11.633393 3.388262 -1.836414 0.000000 0.000000 0.000000 0.000000 0.000000 0.000000 1.250075 0.352274 -0.225970 6.751728 1.168352 -1.316341 -1.745274 1.107041 0.658098 5.645066 7.634962 -0.586370 0.000000 0.000000 0.000000 0.000000 0.000000 0.000000 9.662805 -1.167024 -43.270572 -9.391804 -6.538242 -4.030455 1.450714 0.938236 0.459120 0.000000 0.000000 0.000000 0.030469 0.056436 -46.368882 -0.000000 0.000000 0.000000 1.745604 0.621605 -0.759192 0.000000 0.000000 0.000000
